<?xml version="1.0" encoding="iso-8859-1"?>
<!-- Generator: Adobe Illustrator 16.0.0, SVG Export Plug-In . SVG Version: 6.00 Build 0)  -->
<!DOCTYPE svg PUBLIC "-//W3C//DTD SVG 1.1//EN" "http://www.w3.org/Graphics/SVG/1.1/DTD/svg11.dtd">
<svg version="1.1" xmlns="http://www.w3.org/2000/svg" x="0px" y="0px"
     width="300.016px" height="56.311px" viewBox="0 0 300.016 56.311" style="enable-background:new 0 0 300.016 56.311;"
     xml:space="preserve">
<g id="Layer_2" style="display:none;">
</g>
<g id="Layer_3" style="display:none;">
</g>
<g id="Layer_1">
	<g>
		<g>
			<g>
				<g id="XMLID_60_">
					<g>
						<path style="fill:#2C338C;" d="M53.836,29.47l2.807,0.244c-0.377,6.933-3.262,13.196-7.763,17.902l-1.99-1.991
							C50.933,41.373,53.517,35.721,53.836,29.47z"/>
						<path style="fill:#2C338C;" d="M56.687,28.156c0,0.522-0.016,1.043-0.044,1.558l-2.807-0.244
							c0.022-0.436,0.034-0.874,0.034-1.313c0-1.052-0.063-2.087-0.19-3.103l2.809-0.247C56.617,25.906,56.687,27.023,56.687,28.156
							z"/>
						<path style="fill:#2C338C;" d="M45.328,13.15c2.963,3.314,4.956,7.513,5.545,12.147l-2.811,0.246
							c-0.534-4.042-2.294-7.697-4.894-10.583L45.328,13.15z"/>
						<path style="fill:#2C338C;" d="M47.486,11.337l2.158-1.811c3.688,4.178,6.153,9.457,6.844,15.28l-2.809,0.247
							C53.041,19.824,50.812,15.084,47.486,11.337z"/>
						<path style="fill:#2C338C;" d="M46.177,6.209l-1.812,2.159c-3.291-2.642-7.258-4.477-11.599-5.21l0.488-2.774
							C38.095,1.205,42.514,3.258,46.177,6.209z"/>
						<path style="fill:#2C338C;" d="M44.896,43.631l-1.994-1.991c3.133-3.341,5.114-7.771,5.315-12.663l2.809,0.247
							C50.768,34.795,48.484,39.837,44.896,43.631z"/>
						<path style="fill:#2C338C;" d="M44.896,43.631c-0.929,0.984-1.942,1.881-3.033,2.684l-1.616-2.31
							c0.956-0.708,1.845-1.501,2.655-2.365L44.896,43.631z"/>
						<path style="fill:#2C338C;" d="M42.555,10.526c0.998,0.795,1.924,1.674,2.773,2.624l-2.159,1.811
							c-0.741-0.825-1.554-1.586-2.425-2.276L42.555,10.526z"/>
						<path style="fill:#2C338C;" d="M40.247,44.005l1.616,2.31c-2.697,1.985-5.852,3.385-9.276,4.009l-0.488-2.774
							C35.109,46.996,37.882,45.76,40.247,44.005z"/>
						<path style="fill:#2C338C;" d="M32.277,5.933c3.844,0.646,7.355,2.265,10.277,4.594l-1.811,2.158
							c-2.55-2.018-5.608-3.418-8.956-3.977L32.277,5.933z"/>
						<path style="fill:#2C338C;" d="M45.095,50.93c-3.356,2.448-7.278,4.174-11.531,4.947l-0.489-2.779
							c3.84-0.695,7.378-2.258,10.405-4.476L45.095,50.93z"/>
						<path style="fill:#2C338C;" d="M28.517,56.326c-15.559,0-28.17-12.611-28.17-28.17S12.958-0.016,28.517-0.016v2.818v5.633
							c-10.894,0-19.719,8.829-19.719,19.721c0,10.89,8.825,19.719,19.719,19.719v2.816V56.326z"/>
					</g>
				</g>
			</g>
		</g>
		<g>
			<path style="fill:#2C338C;" d="M80.005,27.983l5.505,1.744c-0.843,3.071-2.247,5.35-4.21,6.84s-4.453,2.235-7.473,2.235
				c-3.733,0-6.804-1.276-9.209-3.827c-2.404-2.552-3.606-6.04-3.606-10.466c0-4.681,1.209-8.315,3.626-10.906
				c2.418-2.59,5.596-3.885,9.535-3.885c3.44,0,6.235,1.018,8.383,3.051c1.28,1.202,2.239,2.929,2.879,5.179l-5.621,1.344
				c-0.333-1.458-1.027-2.608-2.082-3.454c-1.055-0.843-2.337-1.266-3.846-1.266c-2.086,0-3.777,0.748-5.074,2.245
				c-1.3,1.496-1.948,3.92-1.948,7.271c0,3.556,0.639,6.089,1.919,7.598c1.278,1.509,2.941,2.264,4.987,2.264
				c1.509,0,2.808-0.48,3.895-1.439C78.752,31.552,79.531,30.042,80.005,27.983z"/>
			<path style="fill:#2C338C;" d="M87.793,17.948h5.738l4.872,14.466l4.757-14.466h5.582l-7.193,19.606l-1.285,3.55
				c-0.473,1.189-0.924,2.098-1.352,2.725c-0.431,0.627-0.921,1.135-1.478,1.525c-0.557,0.39-1.241,0.693-2.054,0.911
				s-1.729,0.326-2.753,0.326c-1.036,0-2.053-0.108-3.05-0.326l-0.48-4.222c0.845,0.167,1.605,0.25,2.284,0.25
				c1.252,0,2.181-0.367,2.781-1.104c0.602-0.734,1.062-1.672,1.381-2.81L87.793,17.948z"/>
			<path style="fill:#2C338C;" d="M130.23,27.983l5.506,1.744c-0.844,3.071-2.248,5.35-4.211,6.84s-4.454,2.235-7.473,2.235
				c-3.735,0-6.804-1.276-9.209-3.827c-2.404-2.552-3.606-6.04-3.606-10.466c0-4.681,1.209-8.315,3.626-10.906
				c2.417-2.59,5.595-3.885,9.535-3.885c3.439,0,6.235,1.018,8.383,3.051c1.28,1.202,2.238,2.929,2.879,5.179l-5.621,1.344
				c-0.333-1.458-1.026-2.608-2.082-3.454c-1.057-0.843-2.337-1.266-3.847-1.266c-2.085,0-3.776,0.748-5.075,2.245
				c-1.298,1.496-1.946,3.92-1.946,7.271c0,3.556,0.64,6.089,1.918,7.598c1.279,1.509,2.941,2.264,4.988,2.264
				c1.509,0,2.808-0.48,3.895-1.439C128.977,31.552,129.757,30.042,130.23,27.983z"/>
			<path style="fill:#2C338C;" d="M139.323,27.848c0-1.79,0.441-3.523,1.324-5.198c0.883-1.676,2.132-2.954,3.75-3.838
				c1.619-0.882,3.426-1.324,5.42-1.324c3.083,0,5.609,1.002,7.578,3.004c1.97,2.002,2.954,4.531,2.954,7.588
				c0,3.081-0.995,5.638-2.982,7.663c-1.989,2.028-4.493,3.041-7.511,3.041c-1.867,0-3.648-0.422-5.344-1.267
				c-1.694-0.844-2.982-2.081-3.865-3.711C139.765,32.174,139.323,30.189,139.323,27.848z M144.85,28.137
				c0,2.021,0.479,3.568,1.438,4.643s2.143,1.61,3.549,1.61s2.587-0.536,3.539-1.61s1.43-2.636,1.43-4.682
				c0-1.995-0.478-3.529-1.43-4.604c-0.952-1.074-2.133-1.611-3.539-1.611s-2.59,0.537-3.549,1.611
				C145.329,24.568,144.85,26.116,144.85,28.137z"/>
			<path style="fill:#2C338C;" d="M164.168,17.948h4.969v2.782c1.778-2.161,3.895-3.243,6.351-3.243c1.305,0,2.436,0.27,3.396,0.807
				c0.959,0.537,1.745,1.35,2.358,2.437c0.896-1.087,1.862-1.899,2.898-2.437c1.035-0.537,2.142-0.807,3.318-0.807
				c1.496,0,2.763,0.305,3.799,0.913c1.035,0.607,1.81,1.499,2.32,2.677c0.371,0.869,0.557,2.276,0.557,4.22v13.026h-5.391V26.679
				c0-2.021-0.185-3.325-0.556-3.914c-0.499-0.768-1.267-1.152-2.303-1.152c-0.755,0-1.464,0.232-2.13,0.692
				c-0.664,0.46-1.144,1.134-1.438,2.023c-0.296,0.889-0.441,2.292-0.441,4.212v9.783h-5.391V27.158
				c0-1.983-0.097-3.263-0.289-3.837c-0.191-0.576-0.488-1.004-0.892-1.286c-0.402-0.28-0.95-0.423-1.641-0.423
				c-0.832,0-1.58,0.226-2.244,0.673c-0.665,0.447-1.142,1.093-1.43,1.937c-0.287,0.845-0.433,2.244-0.433,4.202v9.899h-5.39V17.948
				z"/>
			<path style="fill:#2C338C;" d="M199.104,17.948h4.968v2.782c1.778-2.161,3.895-3.243,6.351-3.243c1.305,0,2.437,0.27,3.396,0.807
				s1.746,1.35,2.36,2.437c0.895-1.087,1.86-1.899,2.896-2.437s2.142-0.807,3.318-0.807c1.497,0,2.764,0.305,3.799,0.913
				c1.036,0.607,1.81,1.499,2.321,2.677c0.371,0.869,0.557,2.276,0.557,4.22v13.026h-5.391V26.679c0-2.021-0.187-3.325-0.557-3.914
				c-0.499-0.768-1.267-1.152-2.302-1.152c-0.756,0-1.465,0.232-2.13,0.692c-0.666,0.46-1.145,1.134-1.438,2.023
				c-0.295,0.889-0.442,2.292-0.442,4.212v9.783h-5.39V27.158c0-1.983-0.097-3.263-0.288-3.837
				c-0.191-0.576-0.489-1.004-0.893-1.286c-0.403-0.28-0.95-0.423-1.64-0.423c-0.832,0-1.58,0.226-2.245,0.673
				s-1.142,1.093-1.429,1.937c-0.288,0.845-0.432,2.244-0.432,4.202v9.899h-5.391V17.948z"/>
			<path style="fill:#2C338C;" d="M233.04,29.173l5.525-0.538c0.333,1.854,1.008,3.217,2.023,4.086
				c1.018,0.87,2.389,1.306,4.115,1.306c1.829,0,3.207-0.387,4.135-1.16c0.927-0.774,1.392-1.68,1.392-2.716
				c0-0.666-0.196-1.23-0.586-1.697s-1.071-0.873-2.042-1.218c-0.666-0.23-2.182-0.641-4.548-1.229
				c-3.044-0.755-5.18-1.682-6.408-2.78c-1.727-1.548-2.589-3.436-2.589-5.66c0-1.432,0.405-2.772,1.217-4.019
				c0.813-1.248,1.983-2.196,3.512-2.85c1.528-0.651,3.373-0.979,5.535-0.979c3.529,0,6.187,0.774,7.971,2.321
				c1.784,1.548,2.721,3.613,2.812,6.197l-5.68,0.249c-0.242-1.445-0.765-2.483-1.563-3.117c-0.8-0.634-1.998-0.949-3.598-0.949
				c-1.649,0-2.94,0.339-3.875,1.017c-0.601,0.434-0.901,1.016-0.901,1.744c0,0.666,0.281,1.234,0.845,1.708
				c0.716,0.601,2.455,1.228,5.218,1.881s4.806,1.327,6.129,2.023c1.324,0.696,2.36,1.649,3.107,2.858
				c0.749,1.209,1.123,2.702,1.123,4.479c0,1.612-0.448,3.122-1.344,4.528c-0.895,1.406-2.16,2.453-3.798,3.136
				c-1.637,0.685-3.677,1.027-6.119,1.027c-3.556,0-6.286-0.821-8.192-2.466C234.55,34.714,233.411,32.319,233.04,29.173z"/>
			<path style="fill:#2C338C;" d="M272.445,31.839l5.372,0.901c-0.69,1.97-1.781,3.47-3.271,4.499
				c-1.491,1.029-3.354,1.544-5.593,1.544c-3.543,0-6.165-1.157-7.865-3.472c-1.343-1.854-2.016-4.195-2.016-7.022
				c0-3.377,0.884-6.021,2.647-7.933c1.766-1.912,3.998-2.869,6.696-2.869c3.031,0,5.423,1.002,7.175,3.004
				c1.753,2.002,2.59,5.067,2.514,9.199H264.6c0.038,1.598,0.474,2.842,1.305,3.73c0.83,0.889,1.867,1.334,3.107,1.334
				c0.844,0,1.554-0.229,2.13-0.691C271.717,33.604,272.151,32.862,272.445,31.839z M272.752,26.391
				c-0.037-1.561-0.44-2.748-1.208-3.559c-0.768-0.813-1.701-1.22-2.801-1.22c-1.177,0-2.149,0.43-2.916,1.287
				c-0.768,0.855-1.146,2.02-1.133,3.491H272.752z"/>
			<path style="fill:#2C338C;" d="M300.263,23.973l-5.313,0.959c-0.18-1.062-0.585-1.859-1.219-2.396
				c-0.632-0.538-1.455-0.806-2.464-0.806c-1.344,0-2.415,0.463-3.214,1.391c-0.8,0.927-1.199,2.477-1.199,4.652
				c0,2.417,0.405,4.124,1.219,5.121c0.812,0.998,1.901,1.496,3.271,1.496c1.022,0,1.86-0.289,2.513-0.872s1.113-1.584,1.381-3.003
				l5.296,0.901c-0.55,2.431-1.605,4.266-3.165,5.507c-1.561,1.24-3.652,1.86-6.274,1.86c-2.979,0-5.354-0.939-7.128-2.82
				c-1.771-1.88-2.655-4.481-2.655-7.808c0-3.364,0.889-5.982,2.666-7.855c1.777-1.874,4.183-2.813,7.213-2.813
				c2.481,0,4.454,0.534,5.919,1.603C298.571,20.159,299.623,21.786,300.263,23.973z"/>
		</g>
	</g>
</g>
</svg>
